<svg width="47" height="47" viewBox="0 0 47 47" fill="none" xmlns="http://www.w3.org/2000/svg">
<path fill-rule="evenodd" clip-rule="evenodd" d="M23.4999 14.6875C23.8894 14.6875 24.263 14.8422 24.5385 15.1177C24.8139 15.3931 24.9687 15.7667 24.9687 16.1562V27.2982L28.335 23.9289C28.6108 23.6531 28.9849 23.4981 29.3749 23.4981C29.7649 23.4981 30.139 23.6531 30.4148 23.9289C30.6906 24.2047 30.8455 24.5787 30.8455 24.9688C30.8455 25.3588 30.6906 25.7328 30.4148 26.0086L24.5398 31.8836C24.4033 32.0204 24.2413 32.1289 24.0628 32.203C23.8844 32.277 23.6931 32.3151 23.4999 32.3151C23.3067 32.3151 23.1154 32.277 22.937 32.203C22.7585 32.1289 22.5965 32.0204 22.46 31.8836L16.585 26.0086C16.4485 25.8721 16.3401 25.7099 16.2662 25.5315C16.1923 25.3531 16.1543 25.1619 16.1543 24.9688C16.1543 24.7756 16.1923 24.5844 16.2662 24.406C16.3401 24.2276 16.4485 24.0654 16.585 23.9289C16.8608 23.6531 17.2349 23.4981 17.6249 23.4981C17.818 23.4981 18.0093 23.5362 18.1877 23.6101C18.3661 23.684 18.5282 23.7923 18.6648 23.9289L22.0312 27.2982V16.1562C22.0312 15.7667 22.1859 15.3931 22.4613 15.1177C22.7368 14.8422 23.1104 14.6875 23.4999 14.6875Z" fill="url(#paint0_linear_216_840)"/>
<path d="M8.8125 0H38.1875C39.7456 0 41.24 0.618972 42.3418 1.72075C43.4435 2.82252 44.0625 4.31685 44.0625 5.875V41.125C44.0625 42.6831 43.4435 44.1775 42.3418 45.2793C41.24 46.381 39.7456 47 38.1875 47H8.8125C7.25435 47 5.76002 46.381 4.65825 45.2793C3.55647 44.1775 2.9375 42.6831 2.9375 41.125V38.1875H5.875V41.125C5.875 41.9041 6.18449 42.6512 6.73537 43.2021C7.28626 43.753 8.03343 44.0625 8.8125 44.0625H38.1875C38.9666 44.0625 39.7137 43.753 40.2646 43.2021C40.8155 42.6512 41.125 41.9041 41.125 41.125V5.875C41.125 5.09593 40.8155 4.34876 40.2646 3.79787C39.7137 3.24699 38.9666 2.9375 38.1875 2.9375H8.8125C8.03343 2.9375 7.28626 3.24699 6.73537 3.79787C6.18449 4.34876 5.875 5.09593 5.875 5.875V8.8125H2.9375V5.875C2.9375 4.31685 3.55647 2.82252 4.65825 1.72075C5.76002 0.618972 7.25435 0 8.8125 0Z" fill="url(#paint1_linear_216_840)"/>
<path d="M2.9375 14.6875V13.2188C2.9375 12.8292 3.09224 12.4556 3.36769 12.1802C3.64313 11.9047 4.01671 11.75 4.40625 11.75C4.79579 11.75 5.16937 11.9047 5.44481 12.1802C5.72026 12.4556 5.875 12.8292 5.875 13.2188V14.6875H7.34375C7.73329 14.6875 8.10687 14.8422 8.38231 15.1177C8.65776 15.3931 8.8125 15.7667 8.8125 16.1562C8.8125 16.5458 8.65776 16.9194 8.38231 17.1948C8.10687 17.4703 7.73329 17.625 7.34375 17.625H1.46875C1.07921 17.625 0.705631 17.4703 0.430187 17.1948C0.154743 16.9194 0 16.5458 0 16.1562C0 15.7667 0.154743 15.3931 0.430187 15.1177C0.705631 14.8422 1.07921 14.6875 1.46875 14.6875H2.9375ZM2.9375 23.5V22.0312C2.9375 21.6417 3.09224 21.2681 3.36769 20.9927C3.64313 20.7172 4.01671 20.5625 4.40625 20.5625C4.79579 20.5625 5.16937 20.7172 5.44481 20.9927C5.72026 21.2681 5.875 21.6417 5.875 22.0312V23.5H7.34375C7.73329 23.5 8.10687 23.6547 8.38231 23.9302C8.65776 24.2056 8.8125 24.5792 8.8125 24.9688C8.8125 25.3583 8.65776 25.7319 8.38231 26.0073C8.10687 26.2828 7.73329 26.4375 7.34375 26.4375H1.46875C1.07921 26.4375 0.705631 26.2828 0.430187 26.0073C0.154743 25.7319 0 25.3583 0 24.9688C0 24.5792 0.154743 24.2056 0.430187 23.9302C0.705631 23.6547 1.07921 23.5 1.46875 23.5H2.9375ZM2.9375 32.3125V30.8438C2.9375 30.4542 3.09224 30.0806 3.36769 29.8052C3.64313 29.5297 4.01671 29.375 4.40625 29.375C4.79579 29.375 5.16937 29.5297 5.44481 29.8052C5.72026 30.0806 5.875 30.4542 5.875 30.8438V32.3125H7.34375C7.73329 32.3125 8.10687 32.4672 8.38231 32.7427C8.65776 33.0181 8.8125 33.3917 8.8125 33.7812C8.8125 34.1708 8.65776 34.5444 8.38231 34.8198C8.10687 35.0953 7.73329 35.25 7.34375 35.25H1.46875C1.07921 35.25 0.705631 35.0953 0.430187 34.8198C0.154743 34.5444 0 34.1708 0 33.7812C0 33.3917 0.154743 33.0181 0.430187 32.7427C0.705631 32.4672 1.07921 32.3125 1.46875 32.3125H2.9375Z" fill="url(#paint2_linear_216_840)"/>
<defs>
<linearGradient id="paint0_linear_216_840" x1="22.2243" y1="3.67996" x2="10.0935" y2="13.767" gradientUnits="userSpaceOnUse">
<stop stop-color="#ECDD10"/>
<stop offset="1" stop-color="#DF2A00"/>
</linearGradient>
<linearGradient id="paint1_linear_216_840" x1="19.9293" y1="-29.3491" x2="-12.6659" y2="-0.893346" gradientUnits="userSpaceOnUse">
<stop stop-color="#ECDD10"/>
<stop offset="1" stop-color="#DF2A00"/>
</linearGradient>
<linearGradient id="paint2_linear_216_840" x1="3.6411" y1="-2.92453" x2="-7.1555" y2="1.11496" gradientUnits="userSpaceOnUse">
<stop stop-color="#ECDD10"/>
<stop offset="1" stop-color="#DF2A00"/>
</linearGradient>
</defs>
</svg>
