<svg width="55" height="55" viewBox="0 0 55 55" fill="none" xmlns="http://www.w3.org/2000/svg">
<path d="M36.6665 32.0832H40.104V38.5457L45.6957 41.7769L43.9769 44.7561L36.6665 40.5394V32.0832ZM38.9582 27.4998C35.9192 27.4998 33.0048 28.7071 30.8559 30.8559C28.7071 33.0048 27.4998 35.9192 27.4998 38.9582C27.4998 41.9971 28.7071 44.9116 30.8559 47.0604C33.0048 49.2093 35.9192 50.4165 38.9582 50.4165C41.9971 50.4165 44.9116 49.2093 47.0604 47.0604C49.2093 44.9116 50.4165 41.9971 50.4165 38.9582C50.4165 35.9192 49.2093 33.0048 47.0604 30.8559C44.9116 28.7071 41.9971 27.4998 38.9582 27.4998ZM38.9582 22.9165C43.2127 22.9165 47.2929 24.6066 50.3013 27.615C53.3097 30.6234 54.9998 34.7037 54.9998 38.9582C54.9998 43.2127 53.3097 47.2929 50.3013 50.3013C47.2929 53.3097 43.2127 54.9998 38.9582 54.9998C32.5644 54.9998 27.0415 51.2415 24.4519 45.8332H2.2915V38.9582C2.2915 32.8623 14.5061 29.7915 20.6248 29.7915C21.9998 29.7915 23.6957 29.9519 25.4832 30.2498C26.9364 27.9978 28.9315 26.1463 31.2857 24.8651C33.6399 23.584 36.2779 22.9139 38.9582 22.9165ZM22.9165 38.9582C22.9165 37.354 23.1457 35.7957 23.5811 34.3748C22.6186 34.2144 21.6103 34.1457 20.6248 34.1457C13.8186 34.1457 6.64567 37.4915 6.64567 38.9582V41.479H23.1228C22.9878 40.6455 22.9188 39.8026 22.9165 38.9582ZM20.6248 9.1665C23.056 9.1665 25.3876 10.1323 27.1067 11.8514C28.8257 13.5704 29.7915 15.902 29.7915 18.3332C29.7915 20.7643 28.8257 23.0959 27.1067 24.815C25.3876 26.5341 23.056 27.4998 20.6248 27.4998C18.1937 27.4998 15.8621 26.5341 14.143 24.815C12.4239 23.0959 11.4582 20.7643 11.4582 18.3332C11.4582 15.902 12.4239 13.5704 14.143 11.8514C15.8621 10.1323 18.1937 9.1665 20.6248 9.1665ZM20.6248 13.5207C19.3485 13.5207 18.1244 14.0277 17.2219 14.9302C16.3194 15.8327 15.8123 17.0568 15.8123 18.3332C15.8123 19.6095 16.3194 20.8336 17.2219 21.7361C18.1244 22.6386 19.3485 23.1457 20.6248 23.1457C21.9012 23.1457 23.1253 22.6386 24.0278 21.7361C24.9303 20.8336 25.4373 19.6095 25.4373 18.3332C25.4373 17.0568 24.9303 15.8327 24.0278 14.9302C23.1253 14.0277 21.9012 13.5207 20.6248 13.5207Z" fill="url(#paint0_linear_216_848)"/>
<defs>
<linearGradient id="paint0_linear_216_848" x1="24.0692" y1="-19.454" x2="-7.70963" y2="17.0083" gradientUnits="userSpaceOnUse">
<stop stop-color="#ECDD10"/>
<stop offset="1" stop-color="#DF2A00"/>
</linearGradient>
</defs>
</svg>
